<mxfile host="app.diagrams.net" modified="2023-09-19T20:52:21.636Z" agent="Mozilla/5.0 (Windows NT 10.0; Win64; x64) AppleWebKit/537.36 (KHTML, like Gecko) Chrome/116.0.0.0 Safari/537.36" etag="0xZV2XEton44varooWdO" version="21.7.4" type="github">
  <diagram name="Page-1" id="lCDHvuFwO_Oo8ZvdKnjj">
    <mxGraphModel dx="2284" dy="758" grid="0" gridSize="10" guides="0" tooltips="1" connect="1" arrows="1" fold="1" page="1" pageScale="1" pageWidth="850" pageHeight="1100" math="0" shadow="0">
      <root>
        <mxCell id="0" />
        <mxCell id="1" parent="0" />
        <mxCell id="qOTQIHq2Qko7lhdbGlyr-1" value="National Criminal Check and Address Check Statuses Complete" style="rounded=0;whiteSpace=wrap;html=1;strokeColor=#999999;fillColor=#FFFFFF;labelBackgroundColor=none;" parent="1" vertex="1">
          <mxGeometry x="1" y="41" width="150" height="60" as="geometry" />
        </mxCell>
        <mxCell id="qOTQIHq2Qko7lhdbGlyr-2" value="" style="endArrow=classic;html=1;rounded=0;strokeColor=#999999;fillColor=#FFFFFF;labelBackgroundColor=none;" parent="1" edge="1">
          <mxGeometry width="50" height="50" relative="1" as="geometry">
            <mxPoint x="153" y="71" as="sourcePoint" />
            <mxPoint x="183" y="71" as="targetPoint" />
          </mxGeometry>
        </mxCell>
        <mxCell id="qOTQIHq2Qko7lhdbGlyr-3" value="ProcessCounties" style="rounded=0;whiteSpace=wrap;html=1;strokeColor=#999999;fillColor=#FFFFFF;labelBackgroundColor=none;" parent="1" vertex="1">
          <mxGeometry x="183" y="41" width="108" height="60" as="geometry" />
        </mxCell>
        <mxCell id="qOTQIHq2Qko7lhdbGlyr-4" value="" style="endArrow=classic;html=1;rounded=0;strokeColor=#999999;fillColor=#FFFFFF;labelBackgroundColor=none;" parent="1" edge="1">
          <mxGeometry width="50" height="50" relative="1" as="geometry">
            <mxPoint x="293" y="71" as="sourcePoint" />
            <mxPoint x="323" y="71" as="targetPoint" />
          </mxGeometry>
        </mxCell>
        <mxCell id="qOTQIHq2Qko7lhdbGlyr-5" value="CompleteReportCountyChargeJob&lt;br&gt;(NY county surcharges &amp;gt; NY statewide, then replace with NY statewide)" style="rounded=0;whiteSpace=wrap;html=1;strokeColor=#999999;fillColor=#FFFFFF;labelBackgroundColor=none;" parent="1" vertex="1">
          <mxGeometry x="323" y="41" width="200" height="60" as="geometry" />
        </mxCell>
        <mxCell id="qOTQIHq2Qko7lhdbGlyr-6" value="" style="endArrow=classic;html=1;rounded=0;strokeColor=#999999;fillColor=#FFFFFF;labelBackgroundColor=none;" parent="1" edge="1">
          <mxGeometry width="50" height="50" relative="1" as="geometry">
            <mxPoint x="643" y="72" as="sourcePoint" />
            <mxPoint x="673" y="72" as="targetPoint" />
          </mxGeometry>
        </mxCell>
        <mxCell id="qOTQIHq2Qko7lhdbGlyr-7" value="OrderCounties" style="rounded=0;whiteSpace=wrap;html=1;strokeColor=#999999;fillColor=#FFFFFF;labelBackgroundColor=none;" parent="1" vertex="1">
          <mxGeometry x="552" y="41" width="89" height="60" as="geometry" />
        </mxCell>
        <mxCell id="qOTQIHq2Qko7lhdbGlyr-8" value="" style="endArrow=classic;html=1;rounded=0;" parent="1" edge="1">
          <mxGeometry width="50" height="50" relative="1" as="geometry">
            <mxPoint x="1960" y="350" as="sourcePoint" />
            <mxPoint x="1990" y="350" as="targetPoint" />
          </mxGeometry>
        </mxCell>
        <mxCell id="qOTQIHq2Qko7lhdbGlyr-9" value="Background Report Saved Event" style="rounded=0;whiteSpace=wrap;html=1;strokeColor=#999999;fillColor=#FFFFFF;labelBackgroundColor=none;" parent="1" vertex="1">
          <mxGeometry x="-149" y="41" width="120" height="60" as="geometry" />
        </mxCell>
        <mxCell id="qOTQIHq2Qko7lhdbGlyr-10" value="" style="endArrow=classic;html=1;rounded=0;strokeColor=#999999;fillColor=#FFFFFF;labelBackgroundColor=none;" parent="1" edge="1">
          <mxGeometry width="50" height="50" relative="1" as="geometry">
            <mxPoint x="-29" y="71" as="sourcePoint" />
            <mxPoint x="1" y="71" as="targetPoint" />
          </mxGeometry>
        </mxCell>
        <mxCell id="qOTQIHq2Qko7lhdbGlyr-11" value="StartCountyCheckJob" style="rounded=0;whiteSpace=wrap;html=1;strokeColor=#999999;fillColor=#FFFFFF;labelBackgroundColor=none;" parent="1" vertex="1">
          <mxGeometry x="842" y="41" width="129" height="60" as="geometry" />
        </mxCell>
        <mxCell id="qOTQIHq2Qko7lhdbGlyr-12" value="" style="endArrow=classic;html=1;rounded=0;strokeColor=#999999;fillColor=#FFFFFF;labelBackgroundColor=none;" parent="1" edge="1">
          <mxGeometry width="50" height="50" relative="1" as="geometry">
            <mxPoint x="812" y="71" as="sourcePoint" />
            <mxPoint x="842" y="71" as="targetPoint" />
          </mxGeometry>
        </mxCell>
        <mxCell id="qOTQIHq2Qko7lhdbGlyr-13" value="" style="endArrow=classic;html=1;rounded=0;strokeColor=#999999;fillColor=#FFFFFF;labelBackgroundColor=none;" parent="1" edge="1">
          <mxGeometry width="50" height="50" relative="1" as="geometry">
            <mxPoint x="523" y="71" as="sourcePoint" />
            <mxPoint x="553" y="71" as="targetPoint" />
          </mxGeometry>
        </mxCell>
        <mxCell id="qOTQIHq2Qko7lhdbGlyr-14" value="County Criminal Check saved event" style="rounded=0;whiteSpace=wrap;html=1;strokeColor=#999999;fillColor=#FFFFFF;labelBackgroundColor=none;" parent="1" vertex="1">
          <mxGeometry x="673" y="41" width="138" height="60" as="geometry" />
        </mxCell>
      </root>
    </mxGraphModel>
  </diagram>
</mxfile>
